<svg width="57" height="15" viewBox="0 0 57 15" fill="none" xmlns="http://www.w3.org/2000/svg">
<path fill-rule="evenodd" clip-rule="evenodd" d="M12.7984 12.9481C11.4333 14.316 9.768 15 7.80235 15C5.83671 15 4.17137 14.316 2.80634 12.9481C1.44131 11.5801 0.758789 9.91122 0.758789 7.94139C0.758789 5.97155 1.44131 4.30267 2.80634 2.93472C4.17137 1.56678 5.83671 0.882812 7.80235 0.882812C9.768 0.882812 11.4333 1.56678 12.7984 2.93472C14.1634 4.30267 14.8459 5.97155 14.8459 7.94139C14.8459 9.91122 14.1634 11.5801 12.7984 12.9481ZM28.7692 15C30.7348 15 32.4001 14.316 33.7652 12.9481C35.1302 11.5801 35.8127 9.91122 35.8127 7.94139C35.8127 5.97155 35.1302 4.30267 33.7652 2.93472C32.4001 1.56678 30.7348 0.882812 28.7692 0.882812C26.8035 0.882812 25.1382 1.56678 23.7731 2.93472C22.4081 4.30267 21.7256 5.97155 21.7256 7.94139C21.7256 9.91122 22.4081 11.5801 23.7731 12.9481C25.1382 14.316 26.8035 15 28.7692 15ZM49.7359 15C51.7016 15 53.3669 14.316 54.732 12.9481C56.097 11.5801 56.7795 9.91122 56.7795 7.94139C56.7795 5.97155 56.097 4.30267 54.732 2.93472C53.3669 1.56678 51.7016 0.882812 49.7359 0.882812C47.7703 0.882812 46.105 1.56678 44.7399 2.93472C43.3749 4.30267 42.6924 5.97155 42.6924 7.94139C42.6924 9.91122 43.3749 11.5801 44.7399 12.9481C46.105 14.316 47.7703 15 49.7359 15Z" fill="black"/>
</svg>
