<svg width="23" height="24" viewBox="0 0 23 24" fill="none" xmlns="http://www.w3.org/2000/svg">
<path d="M2 6H4.11111M4.11111 6H21M4.11111 6V20C4.11111 20.5304 4.33353 21.0391 4.72944 21.4142C5.12535 21.7893 5.66232 22 6.22222 22H16.7778C17.3377 22 17.8746 21.7893 18.2706 21.4142C18.6665 21.0391 18.8889 20.5304 18.8889 20V6H4.11111ZM7.27778 6V4C7.27778 3.46957 7.5002 2.96086 7.89611 2.58579C8.29202 2.21071 8.82899 2 9.38889 2H13.6111C14.171 2 14.708 2.21071 15.1039 2.58579C15.4998 2.96086 15.7222 3.46957 15.7222 4V6M9.38889 11V17M13.6111 11V17" stroke="#6A4029" stroke-width="3" stroke-linecap="round" stroke-linejoin="round"/>
</svg>
